<svg xmlns="http://www.w3.org/2000/svg" width="440" height="490" viewBox="0 0 440 490"><rect width="100%" height="100%" fill="#DDDDDD"/><path fill="#999999" d="M94.54 250.25h12.98V236.3q0-1.98.26-4.37l-13.24 18.32Zm19.32 0h5.37v4.22q0 .59-.38 1.02-.39.43-1.1.43h-3.89v10.41h-6.34v-10.41h-18q-.74 0-1.3-.46t-.7-1.14l-.77-3.68 20.21-27h6.9v26.61Zm14.9 0h12.98V236.3q0-1.98.26-4.37l-13.24 18.32Zm19.32 0h5.37v4.22q0 .59-.38 1.02-.39.43-1.1.43h-3.89v10.41h-6.34v-10.41h-18q-.74 0-1.3-.46t-.7-1.14l-.77-3.68 20.21-27h6.9v26.61ZM187.7 245q0 5.58-1.2 9.69-1.19 4.12-3.3 6.8-2.11 2.69-4.99 4-2.87 1.31-6.21 1.31-3.33 0-6.18-1.31-2.84-1.31-4.94-4-2.09-2.68-3.27-6.8-1.18-4.11-1.18-9.69 0-5.6 1.18-9.7t3.27-6.79q2.1-2.68 4.94-4 2.85-1.31 6.18-1.31 3.34 0 6.21 1.31 2.88 1.32 4.99 4 2.11 2.69 3.3 6.79 1.2 4.1 1.2 9.7Zm-7.52 0q0-4.63-.68-7.67t-1.82-4.84q-1.13-1.8-2.61-2.52-1.47-.72-3.07-.72-1.56 0-3.02.72t-2.58 2.52q-1.12 1.8-1.79 4.84-.66 3.04-.66 7.67t.66 7.67q.67 3.04 1.79 4.84 1.12 1.8 2.58 2.52t3.02.72q1.6 0 3.07-.72 1.48-.72 2.61-2.52 1.14-1.8 1.82-4.84.68-3.04.68-7.67Zm54.36 11.57-3.86 3.8-10-10-10.09 10.06-3.86-3.81 10.08-10.11-9.61-9.62 3.83-3.84 9.62 9.62 9.56-9.56 3.89 3.84-9.59 9.59 10.03 10.03Zm25.55-6.32h12.98V236.3q0-1.98.27-4.37l-13.25 18.32Zm19.32 0h5.37v4.22q0 .59-.38 1.02-.38.43-1.09.43h-3.9v10.41h-6.34v-10.41h-17.99q-.74 0-1.3-.46t-.71-1.14l-.77-3.68 20.21-27h6.9v26.61Zm16.61-13.77q0 3.57 1.85 5.44 1.84 1.87 5.23 1.87 1.77 0 3.16-.56 1.39-.56 2.33-1.53.94-.98 1.43-2.3.49-1.33.49-2.87 0-1.74-.53-3.11-.54-1.37-1.51-2.31-.97-.95-2.31-1.45-1.35-.5-2.94-.5-1.65 0-2.98.55-1.33.54-2.27 1.51-.94.98-1.45 2.32-.5 1.34-.5 2.94Zm-3.57 29.85 13.25-16.55q.5-.62.94-1.21.44-.59.86-1.18-1.48.94-3.25 1.43t-3.71.49q-2.22 0-4.34-.77-2.12-.77-3.78-2.31-1.65-1.55-2.67-3.84-1.01-2.29-1.01-5.35 0-2.87 1.06-5.37 1.06-2.51 2.98-4.4 1.91-1.89 4.6-2.98 2.68-1.09 5.93-1.09 3.27 0 5.88 1.03 2.61 1.04 4.46 2.89 1.84 1.86 2.83 4.46.99 2.59.99 5.69 0 1.98-.34 3.75t-.96 3.41q-.62 1.63-1.5 3.2-.89 1.56-1.98 3.09l-9.76 13.93q-.51.71-1.51 1.19-1 .49-2.27.49h-6.7Zm60.8-21.33q0 5.58-1.19 9.69-1.2 4.12-3.31 6.8-2.11 2.69-4.98 4-2.88 1.31-6.21 1.31-3.34 0-6.18-1.31-2.85-1.31-4.94-4-2.1-2.68-3.28-6.8-1.18-4.11-1.18-9.69 0-5.6 1.18-9.7t3.28-6.79q2.09-2.68 4.94-4 2.84-1.31 6.18-1.31 3.33 0 6.21 1.31 2.87 1.32 4.98 4 2.11 2.69 3.31 6.79 1.19 4.1 1.19 9.7Zm-7.52 0q0-4.63-.68-7.67t-1.81-4.84q-1.14-1.8-2.61-2.52-1.48-.72-3.07-.72-1.57 0-3.03.72-1.46.72-2.58 2.52t-1.78 4.84q-.67 3.04-.67 7.67t.67 7.67q.66 3.04 1.78 4.84 1.12 1.8 2.58 2.52t3.03.72q1.59 0 3.07-.72 1.47-.72 2.61-2.52 1.13-1.8 1.81-4.84.68-3.04.68-7.67Z"/></svg>