<svg xmlns="http://www.w3.org/2000/svg" width="990" height="900" viewBox="0 0 990 900"><rect width="100%" height="100%" fill="#DDDDDD"/><path fill="#999999" d="M217.77 431.065q0 7.93 4.1 12.09 4.09 4.16 11.62 4.16 3.93 0 7.01-1.25 3.08-1.24 5.17-3.4 2.1-2.16 3.18-5.11t1.08-6.36q0-3.86-1.18-6.91-1.18-3.04-3.34-5.14-2.16-2.09-5.14-3.21-2.98-1.11-6.52-1.11-3.66 0-6.61 1.21t-5.05 3.37q-2.09 2.17-3.2 5.15-1.12 2.98-1.12 6.51Zm-7.92 66.29 29.41-36.75q1.11-1.37 2.09-2.68.98-1.31 1.9-2.62-3.27 2.1-7.2 3.18t-8.26 1.08q-4.91 0-9.63-1.71-4.71-1.7-8.38-5.14-3.67-3.44-5.93-8.51-2.26-5.08-2.26-11.89 0-6.35 2.36-11.92t6.62-9.76q4.25-4.19 10.21-6.62 5.97-2.42 13.17-2.42 7.27 0 13.07 2.29 5.79 2.29 9.89 6.42 4.09 4.13 6.29 9.89 2.19 5.77 2.19 12.64 0 4.39-.75 8.32-.76 3.93-2.13 7.57-1.38 3.63-3.34 7.1-1.97 3.47-4.39 6.88l-21.68 30.92q-1.11 1.57-3.34 2.65-2.23 1.08-5.05 1.08h-14.86Zm83.9-66.29q0 7.93 4.1 12.09 4.09 4.16 11.62 4.16 3.93 0 7.01-1.25 3.08-1.24 5.17-3.4 2.1-2.16 3.18-5.11t1.08-6.36q0-3.86-1.18-6.91-1.18-3.04-3.34-5.14-2.16-2.09-5.14-3.21-2.98-1.11-6.52-1.11-3.66 0-6.61 1.21t-5.05 3.37q-2.09 2.17-3.2 5.15-1.12 2.98-1.12 6.51Zm-7.92 66.29 29.41-36.75q1.11-1.37 2.09-2.68.98-1.31 1.9-2.62-3.27 2.1-7.2 3.18t-8.26 1.08q-4.91 0-9.63-1.71-4.71-1.7-8.38-5.14-3.67-3.44-5.93-8.51-2.26-5.08-2.26-11.89 0-6.35 2.36-11.92t6.62-9.76q4.25-4.19 10.21-6.62 5.97-2.42 13.17-2.42 7.27 0 13.07 2.29 5.79 2.29 9.89 6.42 4.09 4.13 6.29 9.89 2.19 5.77 2.19 12.64 0 4.39-.75 8.32-.76 3.93-2.13 7.57-1.38 3.63-3.34 7.1-1.97 3.47-4.39 6.88l-21.68 30.92q-1.11 1.57-3.34 2.65-2.23 1.08-5.05 1.08h-14.86Zm134.99-47.36q0 12.38-2.65 21.52-2.65 9.14-7.34 15.1-4.68 5.96-11.07 8.87-6.38 2.92-13.78 2.92-7.41 0-13.73-2.92-6.32-2.91-10.97-8.87-4.65-5.96-7.27-15.1-2.62-9.14-2.62-21.52 0-12.44 2.62-21.55 2.62-9.1 7.27-15.06 4.65-5.96 10.97-8.88 6.32-2.91 13.73-2.91 7.4 0 13.78 2.91 6.39 2.92 11.07 8.88 4.69 5.96 7.34 15.06 2.65 9.11 2.65 21.55Zm-16.7 0q0-10.28-1.51-17.03-1.5-6.74-4.03-10.74-2.52-3.99-5.79-5.6-3.28-1.6-6.81-1.6-3.48 0-6.72 1.6-3.24 1.61-5.73 5.6-2.49 4-3.96 10.74-1.48 6.75-1.48 17.03 0 10.29 1.48 17.03 1.47 6.75 3.96 10.75 2.49 3.99 5.73 5.6 3.24 1.6 6.72 1.6 3.53 0 6.81-1.6 3.27-1.61 5.79-5.6 2.53-4 4.03-10.75 1.51-6.74 1.51-17.03Zm120.72 25.68-8.58 8.45-22.21-22.21-22.4 22.34-8.58-8.45 22.4-22.47-21.35-21.35 8.51-8.51 21.36 21.35 21.22-21.22 8.64 8.51-21.28 21.29 22.27 22.27Zm60.52-44.61q0 7.93 4.09 12.09 4.1 4.16 11.63 4.16 3.93 0 7.01-1.25 3.08-1.24 5.17-3.4 2.1-2.16 3.18-5.11t1.08-6.36q0-3.86-1.18-6.91-1.18-3.04-3.34-5.14-2.16-2.09-5.14-3.21-2.98-1.11-6.52-1.11-3.67 0-6.62 1.21-2.94 1.21-5.04 3.37-2.09 2.17-3.21 5.15-1.11 2.98-1.11 6.51Zm-7.93 66.29 29.41-36.75q1.12-1.37 2.1-2.68t1.9-2.62q-3.28 2.1-7.21 3.18t-8.25 1.08q-4.91 0-9.63-1.71-4.71-1.7-8.38-5.14-3.67-3.44-5.93-8.51-2.26-5.08-2.26-11.89 0-6.35 2.36-11.92t6.61-9.76q4.26-4.19 10.22-6.62 5.96-2.42 13.17-2.42 7.27 0 13.06 2.29 5.8 2.29 9.89 6.42 4.1 4.13 6.29 9.89 2.2 5.77 2.2 12.64 0 4.39-.76 8.32-.75 3.93-2.13 7.57-1.37 3.63-3.34 7.1-1.96 3.47-4.38 6.88l-21.68 30.92q-1.12 1.57-3.35 2.65-2.22 1.08-5.04 1.08h-14.87Zm135-47.36q0 12.38-2.65 21.52-2.66 9.14-7.34 15.1-4.68 5.96-11.07 8.87-6.39 2.92-13.79 2.92-7.4 0-13.72-2.92-6.32-2.91-10.97-8.87-4.65-5.96-7.27-15.1-2.62-9.14-2.62-21.52 0-12.44 2.62-21.55 2.62-9.1 7.27-15.06 4.65-5.96 10.97-8.88 6.32-2.91 13.72-2.91t13.79 2.91q6.39 2.92 11.07 8.88 4.68 5.96 7.34 15.06 2.65 9.11 2.65 21.55Zm-16.7 0q0-10.28-1.51-17.03-1.51-6.74-4.03-10.74-2.52-3.99-5.8-5.6-3.27-1.6-6.81-1.6-3.47 0-6.71 1.6-3.24 1.61-5.73 5.6-2.49 4-3.97 10.74-1.47 6.75-1.47 17.03 0 10.29 1.47 17.03 1.48 6.75 3.97 10.75 2.49 3.99 5.73 5.6 3.24 1.6 6.71 1.6 3.54 0 6.81-1.6 3.28-1.61 5.8-5.6 2.52-4 4.03-10.75 1.51-6.74 1.51-17.03Zm92.68 0q0 12.38-2.65 21.52-2.66 9.14-7.34 15.1-4.68 5.96-11.07 8.87-6.39 2.92-13.79 2.92-7.4 0-13.72-2.92-6.32-2.91-10.97-8.87-4.65-5.96-7.27-15.1-2.62-9.14-2.62-21.52 0-12.44 2.62-21.55 2.62-9.1 7.27-15.06 4.65-5.96 10.97-8.88 6.32-2.91 13.72-2.91t13.79 2.91q6.39 2.92 11.07 8.88 4.68 5.96 7.34 15.06 2.65 9.11 2.65 21.55Zm-16.7 0q0-10.28-1.51-17.03-1.51-6.74-4.03-10.74-2.52-3.99-5.8-5.6-3.27-1.6-6.81-1.6-3.47 0-6.71 1.6-3.24 1.61-5.73 5.6-2.49 4-3.97 10.74-1.47 6.75-1.47 17.03 0 10.29 1.47 17.03 1.48 6.75 3.97 10.75 2.49 3.99 5.73 5.6 3.24 1.6 6.71 1.6 3.54 0 6.81-1.6 3.28-1.61 5.8-5.6 2.52-4 4.03-10.75 1.51-6.74 1.51-17.03Z"/></svg>