<svg xmlns="http://www.w3.org/2000/svg" width="400" height="600" viewBox="0 0 400 600"><rect width="100%" height="100%" fill="#DDDDDD"/><path fill="#999999" d="M133.245 294.26q0 6.13-2.04 11.25t-5.74 8.81q-3.69 3.7-8.89 5.74-5.2 2.04-11.55 2.04h-21.22v-55.67h21.22q6.35 0 11.55 2.06 5.2 2.06 8.89 5.74 3.7 3.67 5.74 8.79 2.04 5.12 2.04 11.24Zm-10.63 0q0-4.58-1.21-8.22-1.21-3.63-3.5-6.16-2.29-2.52-5.55-3.86-3.25-1.35-7.33-1.35h-10.82v39.19h10.82q4.08 0 7.33-1.35 3.26-1.34 5.55-3.87 2.29-2.52 3.5-6.16 1.21-3.63 1.21-8.22Zm25.76 3.55h17.94q0-1.85-.52-3.49-.52-1.63-1.56-2.87-1.04-1.23-2.64-1.94-1.59-.71-3.71-.71-4.12 0-6.49 2.35-2.37 2.34-3.02 6.66Zm24.25 5.73h-24.44q.23 3.04 1.07 5.26.85 2.21 2.24 3.66 1.38 1.44 3.29 2.15 1.9.71 4.21.71t3.99-.53q1.67-.54 2.93-1.2 1.25-.65 2.19-1.19.94-.54 1.83-.54 1.19 0 1.77.88l2.73 3.47q-1.58 1.85-3.54 3.1t-4.1 2q-2.14.75-4.35 1.06-2.21.31-4.29.31-4.12 0-7.66-1.37-3.55-1.37-6.16-4.04-2.62-2.68-4.12-6.62-1.5-3.95-1.5-9.15 0-4.04 1.3-7.6 1.31-3.56 3.76-6.2 2.44-2.64 5.97-4.18 3.52-1.54 7.95-1.54 3.73 0 6.89 1.2 3.15 1.19 5.43 3.48 2.27 2.29 3.56 5.62t1.29 7.61q0 2.15-.47 2.9-.46.75-1.77.75Zm18.87-9.39v17.71q1.62 1.96 3.52 2.77 1.91.81 4.14.81 2.16 0 3.89-.81t2.94-2.46q1.22-1.66 1.87-4.18.66-2.52.66-5.95 0-3.46-.56-5.87t-1.6-3.91q-1.04-1.5-2.52-2.19-1.48-.7-3.37-.7-2.97 0-5.04 1.26-2.08 1.25-3.93 3.52Zm-1.27-9.82.77 3.66q2.42-2.73 5.5-4.43 3.08-1.69 7.24-1.69 3.24 0 5.91 1.35 2.68 1.34 4.62 3.9 1.95 2.56 3 6.32 1.06 3.75 1.06 8.6 0 4.43-1.19 8.2-1.19 3.78-3.41 6.55-2.21 2.77-5.35 4.33-3.14 1.56-7.03 1.56-3.31 0-5.65-1.02-2.35-1.02-4.2-2.83V335h-9.51v-52.4h5.81q1.85 0 2.43 1.73Zm52.97-2.35q4.39 0 7.99 1.43 3.6 1.42 6.16 4.04t3.95 6.39q1.39 3.77 1.39 8.43 0 4.7-1.39 8.47-1.39 3.78-3.95 6.43-2.56 2.66-6.16 4.08-3.6 1.43-7.99 1.43-4.42 0-8.04-1.43-3.62-1.42-6.18-4.08-2.56-2.65-3.97-6.43-1.4-3.77-1.4-8.47 0-4.66 1.4-8.43 1.41-3.77 3.97-6.39 2.56-2.62 6.18-4.04 3.62-1.43 8.04-1.43Zm0 33.38q4.93 0 7.3-3.31t2.37-9.7q0-6.39-2.37-9.74-2.37-3.35-7.3-3.35-5 0-7.41 3.37-2.4 3.37-2.4 9.72 0 6.35 2.4 9.68 2.41 3.33 7.41 3.33Zm27.07-32.76h9.55v39.5h-9.55v-39.5Zm10.86-11.51q0 1.23-.5 2.31t-1.33 1.88q-.83.81-1.95 1.29-1.11.48-2.38.48-1.24 0-2.33-.48-1.1-.48-1.91-1.29-.81-.8-1.29-1.88-.48-1.08-.48-2.31 0-1.27.48-2.39t1.29-1.92q.81-.81 1.91-1.29 1.09-.49 2.33-.49 1.27 0 2.38.49 1.12.48 1.95 1.29.83.8 1.33 1.92.5 1.12.5 2.39Zm34.65 15.78-2.16 3.43q-.38.62-.81.87-.42.25-1.08.25-.69 0-1.48-.39-.79-.38-1.83-.87-1.04-.48-2.36-.86-1.33-.39-3.14-.39-2.81 0-4.41 1.2-1.6 1.19-1.6 3.11 0 1.28.83 2.14.83.87 2.19 1.52 1.37.66 3.1 1.18 1.74.52 3.53 1.13 1.79.62 3.52 1.41 1.73.79 3.1 2 1.36 1.21 2.19 2.91.83 1.69.83 4.08 0 2.85-1.02 5.25-1.02 2.41-3.02 4.16t-4.95 2.73q-2.94.99-6.79.99-2.05 0-3.99-.37-1.94-.37-3.73-1.02t-3.31-1.54q-1.53-.89-2.68-1.93l2.19-3.61q.43-.66 1-1.01.58-.34 1.47-.34.88 0 1.67.5.79.5 1.83 1.08 1.04.57 2.45 1.08 1.4.5 3.56.5 1.69 0 2.9-.41 1.22-.4 2.01-1.06.79-.65 1.15-1.52.37-.86.37-1.79 0-1.38-.83-2.27-.83-.89-2.2-1.54-1.36-.65-3.11-1.17-1.76-.52-3.58-1.14-1.83-.62-3.59-1.44-1.75-.83-3.11-2.1-1.37-1.27-2.2-3.12-.83-1.85-.83-4.47 0-2.42.97-4.62.96-2.19 2.83-3.83 1.86-1.63 4.65-2.62 2.8-.98 6.45-.98 4.08 0 7.43 1.35 3.35 1.35 5.59 3.54Z"/></svg>