<svg xmlns="http://www.w3.org/2000/svg" width="400" height="600" viewBox="0 0 400 600"><rect width="100%" height="100%" fill="#e5e7eb"/><path fill="#6b7280" d="M102.285 307.86h21.39l-8.19-22.37q-.6-1.48-1.25-3.53t-1.3-4.42q-.61 2.37-1.26 4.44-.65 2.07-1.26 3.61l-8.13 22.27Zm17.06-41.85 26.41 67.24h-9.67q-1.63 0-2.65-.81-1.02-.82-1.53-2.03l-5.03-13.71h-27.85l-5.02 13.71q-.37 1.07-1.44 1.96-1.07.88-2.65.88h-9.77l26.46-67.24h12.74Zm41.53 21.62.79 3.77q1.44-1.44 3.04-2.67 1.61-1.24 3.4-2.1 1.79-.86 3.83-1.34 2.05-.49 4.47-.49 3.9 0 6.93 1.32 3.02 1.33 5.04 3.72 2.02 2.4 3.07 5.72 1.05 3.33 1.05 7.33v30.36h-11.49v-30.36q0-4.38-2-6.77-2-2.39-6.09-2.39-2.98 0-5.58 1.34-2.6 1.35-4.93 3.68v34.5h-11.48v-47.71h7.02q2.23 0 2.93 2.09Zm58.4 46.36q-6.23 0-9.56-3.51-3.32-3.51-3.32-9.69v-26.65h-4.88q-.93 0-1.58-.6-.65-.61-.65-1.81v-4.56l7.67-1.26 2.42-13.02q.23-.93.88-1.44.65-.51 1.67-.51h5.96v15.02h12.74v8.18h-12.74V320q0 2.23 1.09 3.48 1.09 1.26 3 1.26 1.07 0 1.79-.26.72-.25 1.25-.53.54-.28.96-.53.41-.26.83-.26.51 0 .84.26.33.25.7.76l3.44 5.58q-2.51 2.09-5.77 3.16-3.25 1.07-6.74 1.07Zm27.76-30.08h21.67q0-2.23-.63-4.21t-1.88-3.46q-1.26-1.49-3.19-2.35-1.93-.86-4.48-.86-4.98 0-7.84 2.83-2.86 2.84-3.65 8.05Zm29.3 6.93h-29.53q.28 3.67 1.3 6.34 1.02 2.68 2.7 4.42 1.67 1.75 3.97 2.61 2.3.86 5.09.86t4.82-.65q2.02-.66 3.53-1.45 1.51-.79 2.65-1.44 1.14-.65 2.21-.65 1.44 0 2.14 1.07l3.3 4.19q-1.91 2.23-4.28 3.74-2.37 1.51-4.95 2.42-2.58.9-5.25 1.28-2.68.37-5.19.37-4.97 0-9.25-1.65t-7.44-4.89q-3.16-3.23-4.98-7.99-1.81-4.77-1.81-11.05 0-4.88 1.58-9.18t4.53-7.49q2.96-3.18 7.21-5.04 4.26-1.86 9.6-1.86 4.51 0 8.33 1.44 3.81 1.44 6.55 4.21 2.75 2.76 4.31 6.79 1.55 4.02 1.55 9.18 0 2.6-.56 3.51-.55.91-2.13.91Zm43.01-20.14-2.61 4.14q-.46.75-.97 1.05-.51.3-1.3.3-.84 0-1.79-.47-.96-.46-2.21-1.04-1.26-.58-2.86-1.05-1.61-.46-3.79-.46-3.4 0-5.33 1.44-1.93 1.44-1.93 3.76 0 1.54 1 2.59 1 1.04 2.65 1.83t3.75 1.42q2.09.63 4.25 1.37 2.16.75 4.26 1.7 2.09.95 3.74 2.42 1.65 1.46 2.65 3.51 1 2.04 1 4.93 0 3.44-1.23 6.34-1.23 2.91-3.65 5.03-2.42 2.11-5.98 3.3-3.56 1.18-8.21 1.18-2.46 0-4.81-.44-2.35-.44-4.51-1.23-2.16-.79-4-1.86-1.83-1.07-3.23-2.33l2.65-4.37q.51-.79 1.21-1.21.7-.41 1.77-.41t2.02.6q.95.61 2.21 1.3 1.25.7 2.95 1.3 1.7.61 4.3.61 2.05 0 3.51-.49 1.47-.49 2.42-1.28t1.4-1.83q.44-1.05.44-2.17 0-1.67-1-2.74-1-1.07-2.65-1.86t-3.77-1.42q-2.11-.63-4.32-1.37-2.21-.74-4.33-1.74-2.11-1-3.76-2.54-1.65-1.53-2.65-3.76-1-2.24-1-5.4 0-2.93 1.16-5.58t3.42-4.63q2.25-1.97 5.62-3.16 3.37-1.18 7.79-1.18 4.93 0 8.98 1.62 4.04 1.63 6.74 4.28Z"/></svg>